<svg width="1038" height="767" viewBox="0 0 1038 767" fill="none" xmlns="http://www.w3.org/2000/svg">
<path d="M790.934 62.1721C773.494 62.7167 749.073 64.4379 720.258 69.623C699.385 73.3703 683.868 77.575 667.549 82.0194C647.82 87.4006 621.5 95.3526 590.808 106.834L598.91 153.152L624.109 150.385L680 140.734L750.95 125.853C751.98 133.392 752.552 144.917 748.913 158.075C742.116 182.803 724.813 197.334 714.147 206.615C696.822 221.735 679.954 228.336 664.322 234.458C654.366 238.358 629.03 247.421 595.111 249.338C587.261 249.774 580.669 249.752 576 249.622L577.739 309.73C622.53 313.303 658.234 307.246 680.846 301.734C696.295 297.965 721.311 291.669 750.057 275.264C767.841 265.112 781.298 254.393 790.614 246.049L827.096 213.522L860.397 241.909L894.293 275.003L915.715 301.473L926.724 321.32L931.645 334H979.639C979.021 319.904 976.618 300.689 969.111 279.033C965.312 268.031 957.667 249.186 942.974 228.532C934.414 216.506 925.786 207.138 918.782 200.297L861.427 136.42L849.983 125.527L850.555 123.174L852.661 122.193L883.856 136.66L904.317 147.64L914.021 158.054L933.682 187.574L945.743 204.785C952.884 203.74 962.405 201.539 972.75 196.79C979.319 193.761 984.743 190.406 989 187.313C985.475 176.528 979.937 161.975 971.171 145.635C961.718 128.032 954.623 114.83 940.502 101.213C917.34 78.8822 890.745 70.4291 877.31 66.2679C866.508 62.9346 856.414 60.952 847.42 59.7756L818.833 54.5251C820.23 52.0632 823.159 46.1156 822.495 38.2943C822.244 35.3749 821.649 28.4033 815.95 22.826C810.686 17.6844 801.485 14.0897 792.879 17.0962C785.258 19.7541 782.008 26.2464 781.07 28.0765C780.246 29.7105 776.835 37.0089 780.017 45.5491C782.786 52.9565 788.783 56.573 790.499 57.5316L790.888 62.1285L790.934 62.1721Z" fill="#2E4032"/>
<path d="M120.206 404.078C118.487 402.336 114.156 397.481 113.079 390.035C112.736 387.597 111.682 380.412 116.654 373.729C121.878 366.675 129.898 365.303 131.25 365.107C138.72 363.954 147.313 366.414 152.445 372.771C159.755 381.828 155.332 392.909 154.462 395.064C152.331 400.42 148.756 403.86 146.648 405.602L149.169 407.757H293.732L296 451.147H250.837L216.764 453.302C211.769 453.716 204.734 454.761 196.829 457.613C188.489 460.639 176.069 465.124 175.634 471.525C175.199 478.078 187.503 483.891 204.345 491.663C220.682 499.196 221.278 497.367 232.391 502.701C261.331 516.547 274.782 537.295 277.302 541.301C280.579 546.548 282.756 551.207 284.108 554.494L285.872 611.317L284.612 696.66L218.758 695.462L218.506 598.864L216.489 592.398C214.221 589.655 211.7 586.911 208.928 584.255C186.243 562.506 157.234 555.822 138.537 553.58L125.659 567.971L110.513 590.025C106.595 597.079 101.462 607.006 96.3753 619.263C84.7809 647.283 80.6106 670.295 77.9526 685.426C75.6612 698.554 73.3699 715.709 72.6595 736L0 730.252L2.77257 694.766C3.34541 687.32 4.67441 675.52 8.3177 661.434C11.5715 648.872 15.0773 640.686 33.2937 599.103C44.0403 574.567 45.438 571.454 47.6835 564.335C54.6264 542.302 55.7492 526.257 56.0012 521.663C56.4137 514.24 56.9865 503.245 54.4889 489.29C51.1894 470.893 44.4298 457.504 34.0499 437.039C29.7192 428.483 25.778 421.495 22.9596 416.661L20.4391 376.385L22.7075 292L76.6924 295.832C76.257 304.388 75.7071 315.752 75.1801 329.163C73.9656 359.708 74.2177 364.237 76.1883 370.637C77.7464 375.666 84.231 396.763 104.189 405.166C110.078 407.648 115.554 408.345 119.335 408.519L120.16 404.099L120.206 404.078Z" fill="#F2E1AE"/>
<path d="M474.944 376.884C472.682 375.335 467.839 371.518 465.075 364.908C464.024 362.355 460.597 354.109 465.075 345.667C469.849 336.679 479.787 334.651 481.089 334.411C490.661 332.622 501.033 336.81 505.693 344.402C509.462 350.554 508.48 357.273 508.046 360.152C507.338 364.995 505.487 368.682 504.117 370.907L513.026 370.667L529.794 371.91L584.256 385.414L667 409.672L664.373 457.424L588.962 438.925L567.488 434.17L560.68 433.668L555.7 434.672L555.449 438.664L560.68 454.174C567.648 471.888 576.169 498.24 580.19 531.006C585.444 574.025 580.327 607.445 574.913 641.345C571.029 665.625 564.153 698.26 551.177 736L488.811 722.213L505.556 662.659C509.828 649.417 513.986 632.074 515.333 611.546C516.978 586.35 513.803 565.103 510.216 549.767C508.868 553.453 506.835 558.863 504.162 565.321C497.446 581.485 485.178 607.729 451.117 655.983C438.712 673.544 422.172 695.795 401.315 720.861L344.066 693.308C370.863 657.947 391.103 627.428 405.496 604.435C419.659 581.791 426.764 568.702 432.955 551.992C434.851 546.887 443.418 523.218 446.913 490.212C448.901 471.43 448.649 455.33 447.85 443.114L420.39 452.887C412.349 453.978 403.965 454.894 395.261 455.548C366.751 457.708 340.753 456.705 318 454.218V410.217C324.397 410.457 334.128 410.588 345.916 409.781C355.557 409.105 369.926 407.556 411.07 397.783C421.327 395.339 435.148 391.936 451.551 387.551L474.487 380.244L474.921 376.84L474.944 376.884Z" fill="#D9A3AC"/>
<path d="M821.383 490.881C819.51 490.163 811.238 486.813 807.377 478.157C804.064 470.783 804.612 461.061 810.964 454.275C816.951 447.859 825.131 447.228 827.256 447.141C839.777 446.597 847.409 455.863 848.117 456.755C856.297 467.042 852.047 479.07 851.704 480.027L868.316 480.963L895.689 477.852L921.76 469L941.959 460.474L947.009 456.581L950.139 441.421L953.498 384H1005.3C1005.43 390.895 1005.53 400.835 1005.3 412.819C1004.09 475.677 995.906 488.814 991.61 494.557C984.116 504.583 974.908 509.629 963.574 516.111C943.764 527.443 924.913 531.662 912.643 533.424C919.818 541.189 931.357 552.869 947.306 565.31C964.237 578.512 968.624 578.947 980.711 589.061C1004.11 608.615 1016.01 630.67 1020.42 639.718C1030.07 659.532 1032.37 675.823 1035.23 696.116C1038.68 720.476 1038.31 740.965 1037.29 755.255L975.981 767C975.936 763.781 975.821 758.865 975.57 752.906C974.359 724.478 973.377 704.533 965.699 682.392C962.021 671.821 960.261 666.536 956.24 660.859C940.314 638.326 911.135 632.997 898.637 631.474C895.895 634.693 891.393 639.805 885.498 645.808C871.24 660.359 848.231 683.392 812.289 698.073C796.546 704.512 787.429 708.1 775.273 706.382C765.494 705.012 755.098 700.423 734.922 680.238C722.56 667.884 705.926 649.07 690 622.818L710.793 609.746L729.94 591.932C733.436 595.282 738.121 599.741 743.673 605.004C769.493 629.473 772.829 632.062 778.609 633.519C790.857 636.586 805.366 632.41 814.803 623.622C822.891 616.053 829.495 602.981 825.61 591.149C823.577 584.929 819.258 580.97 815.214 577.686C796.135 562.222 776.05 556.218 766.956 552.76C752.63 547.344 733.665 536.273 714.951 511.152C712.347 504.301 709.856 497.058 707.571 489.402C700.579 465.911 697.175 444.096 695.758 424.999L740.588 420.345L745.889 434.308L760.147 467.282C761.815 470.914 764.489 475.917 768.716 481.245C773.651 487.488 779.021 494.274 788.686 497.928C791.565 499.015 803.972 503.713 814.323 497.602C817.842 495.514 820.081 492.795 821.383 490.815V490.881Z" fill="#DFDCF2"/>
<path d="M163.544 94.4676C173.126 86.1448 213.144 53.7914 252.444 39.0389C274.197 30.8695 278.062 34.724 317.973 27.9531C344.436 23.4677 380.032 15.4518 421.615 0L440.402 43.1491L423.898 52.3418C420.393 54.1667 415.323 56.7761 409.174 59.8289C392.437 68.1859 384.077 72.3643 377.587 74.8032C372.284 76.7986 372.122 76.4064 336.31 82.9725C323.492 85.3261 313.119 87.2875 300.067 90.4597C285.523 94.0071 273.999 96.8041 274.215 98.9701C274.485 101.46 290.125 99.8911 315.492 103.746C334.656 106.645 335.717 109.067 353.893 111.915C360.221 112.904 368.832 113.979 401.264 114.644C415.503 114.934 434.415 115.138 456.906 114.882L463 159.242C456.888 160.982 447.863 163.336 436.806 165.365C424.276 167.668 392.743 172.579 352.095 168.435C339.187 167.122 312.598 163.591 288.561 159.242C287.68 159.089 277.235 157.196 263.069 156.855C252.696 156.616 233.244 156.156 231.841 161.05C230.457 165.894 247.14 174.797 258.395 179.333C272.759 185.115 298.827 192.039 337.713 184.109L341.308 215.78L313.245 218.85H286.746C278.224 219.805 268.408 220.078 257.675 218.85C215.805 214.057 187.706 189.703 176.2 178.327L176.02 188.748L173.198 194.103L166.69 198.418L157.809 201.3L149.575 200.891L141.988 197.19L137.44 190.197L138.518 181.772L142.635 174.78L146.537 170.874L149.791 167.787L148.658 165.297L142.743 164.802L138.393 167.173C133.107 171.607 127.732 176.69 122.464 182.505C99.7223 207.627 89.6188 234.745 84.8367 254H40C41.2584 247.638 43.218 238.889 46.1664 228.622C50.6429 213.102 54.58 199.475 63.4431 183.324C67.7038 175.581 76.7287 160.624 92.2615 145.053C102.131 135.161 110.958 126.292 125.179 118.89C131.759 115.462 140.406 111.881 151.93 103.66C157.934 99.3794 161.997 95.7808 163.526 94.4676H163.544Z" fill="#D9303E"/>
</svg>
