<svg width="183" height="201" viewBox="0 0 183 201" fill="none" xmlns="http://www.w3.org/2000/svg">
<path d="M31.1411 57.2363C45.5658 57.2363 57.2593 45.5428 57.2593 31.1182C57.2593 16.6935 45.5658 5 31.1411 5C16.7165 5 5.02295 16.6935 5.02295 31.1182C5.02295 45.5428 16.7165 57.2363 31.1411 57.2363Z" stroke="black" stroke-width="10" stroke-miterlimit="10"/>
<path d="M151.882 57.2363C166.307 57.2363 178 45.5428 178 31.1182C178 16.6935 166.307 5 151.882 5C137.457 5 125.764 16.6935 125.764 31.1182C125.764 45.5428 137.457 57.2363 151.882 57.2363Z" stroke="black" stroke-width="10" stroke-miterlimit="10"/>
<path d="M105.745 94.2339C105.745 94.2339 125.748 62.8541 159.166 82.3598C159.166 82.3598 188.01 100.159 163.954 135.283L111.077 193.255L40.4492 108.762" stroke="black" stroke-width="10" stroke-miterlimit="10"/>
<path d="M140.677 108.334L111.241 141.942L61.8014 85.4395C61.8014 85.4395 46.5381 69.323 19.4008 85.4395C19.4008 85.4395 -8.5897 104.092 13.4756 132.082L49.951 177.019" stroke="black" stroke-width="10" stroke-miterlimit="10"/>
<path d="M64.8354 190.671C66.2496 190.671 67.396 191.818 67.396 193.232C67.396 194.646 66.2496 195.792 64.8354 195.792C63.4213 195.792 62.2749 194.646 62.2749 193.232C62.2749 191.818 63.4213 190.671 64.8354 190.671Z" fill="black" stroke="black" stroke-width="10"/>
</svg>
