<svg width="483" height="517" viewBox="0 0 483 517" fill="none" xmlns="http://www.w3.org/2000/svg">
<path d="M214.04 241.861C219.87 241.861 224.596 237.129 224.596 231.291C224.596 225.454 219.87 220.722 214.04 220.722C208.21 220.722 203.484 225.454 203.484 231.291C203.484 237.129 208.21 241.861 214.04 241.861Z" stroke="black" stroke-width="7" stroke-miterlimit="10"/>
<path d="M262.834 241.861C268.664 241.861 273.39 237.129 273.39 231.291C273.39 225.454 268.664 220.722 262.834 220.722C257.005 220.722 252.279 225.454 252.279 231.291C252.279 237.129 257.005 241.861 262.834 241.861Z" stroke="black" stroke-width="7" stroke-miterlimit="10"/>
<path d="M244.19 256.833C244.19 256.833 252.274 244.134 265.78 252.028C265.78 252.028 277.437 259.231 267.715 273.445L246.345 296.905L217.801 262.713" stroke="black" stroke-width="7" stroke-miterlimit="10"/>
<path d="M258.307 262.539L246.411 276.14L226.43 253.274C226.43 253.274 220.261 246.752 209.294 253.274C209.294 253.274 197.981 260.822 206.899 272.15L221.64 290.335" stroke="black" stroke-width="7" stroke-miterlimit="10"/>
<path d="M227.657 299.955C229.344 299.955 230.712 298.585 230.712 296.896C230.712 295.206 229.344 293.836 227.657 293.836C225.969 293.836 224.601 295.206 224.601 296.896C224.601 298.585 225.969 299.955 227.657 299.955Z" fill="black"/>
<path d="M46.6836 196.082L42.9639 184.249C50.4033 181.383 57.2894 176.082 61.501 168.687C66.1737 160.459 65.3745 154.203 60.8554 151.645C55.1068 148.379 50.8337 152.354 44.255 157.747L34.8788 165.266C28.0235 171.183 18.6473 176.021 9.20969 170.628C-1.02724 164.773 -3.17915 150.135 5.02884 135.683C9.97822 126.993 17.6943 120.552 26.1175 117.686L29.745 128.287C23.5045 131.122 18.7396 134.851 14.6817 141.969C10.8697 148.687 11.0234 154.789 15.7884 157.5C20.7992 160.366 25.8409 155.775 31.7432 150.628L40.689 143.448C48.9585 136.237 57.4739 132.663 66.7578 137.963C77.2099 143.941 80.4378 158.61 71.0309 175.158C65.3744 185.112 56.5516 192.569 46.6529 196.113L46.6836 196.082Z" fill="black"/>
<path d="M63.9296 114.728C47.821 96.3924 48.6203 77.4097 62.7614 64.9293C76.9025 52.4488 95.8086 54.082 111.917 72.4175C128.333 91.092 127.688 110.26 113.546 122.74C99.4053 135.22 80.3763 133.433 63.9603 114.759L63.9296 114.728ZM100.727 82.217C89.5065 69.4284 78.0707 66.6549 70.3238 73.5269C62.5462 80.368 63.8374 92.0781 75.0888 104.867C86.6168 117.994 98.1757 120.922 105.953 114.081C113.731 107.24 112.286 95.3754 100.758 82.2478L100.727 82.217ZM79.7 46.1624L89.3836 44.2826L96.3312 141.692L86.6476 143.572L79.7 46.1624Z" fill="black"/>
<path d="M138.785 88.4418L143.396 76.9474C150.959 79.4743 159.628 79.7825 167.59 76.7317C176.413 73.342 179.733 68.0108 177.888 63.1727C175.521 56.9787 169.711 57.3177 161.196 57.3177L149.176 57.1636C140.107 57.3793 129.839 55.1606 125.966 44.9605C121.754 33.9284 129.378 21.2322 144.872 15.2847C154.186 11.71 164.239 11.6484 172.539 14.7916L168.635 25.2691C162.026 23.4817 155.969 23.3276 148.315 26.2552C141.121 29.0286 137.371 33.8359 139.338 38.9822C141.398 44.375 148.223 44.036 156 43.7894L167.467 43.9435C178.411 43.6354 187.264 46.2855 191.076 56.3007C195.38 67.5794 188.556 80.9535 170.818 87.733C160.15 91.8315 148.622 91.9856 138.723 88.4109L138.785 88.4418Z" fill="black"/>
<path d="M230.241 11.7101L204.634 11.0938L204.91 0L270.544 1.60244L270.267 12.6962L244.659 12.0799L243.122 75.2218L228.674 74.8828L230.211 11.7409L230.241 11.7101Z" fill="black"/>
<path d="M306.757 11.0938L331.535 22.28C346.905 29.2136 356.62 39.5677 349.826 54.6983C343.278 69.2435 328.368 70.4761 312.997 63.5425L301.469 58.3346L289.603 84.7747L276.354 78.7964L306.788 11.0938H306.757ZM315.979 53.2808C326.124 57.8724 333.41 56.4549 336.822 48.8125C340.296 41.0469 336.023 35.839 325.878 31.2782L315.703 26.6866L305.804 48.6892L315.979 53.2808ZM324.741 56.27L331.289 103.572L316.471 96.8854L311.921 59.1667L324.741 56.27Z" fill="black"/>
<path d="M392.096 59.8446L427.94 97.779L419.886 105.421L394.001 78.026L380.229 91.092L402.179 114.296L394.124 121.939L372.175 98.7343L356.282 113.834L383.027 142.154L374.972 149.796L338.267 110.968L392.065 59.9062L392.096 59.8446Z" fill="black"/>
<path d="M424.681 218.208C446.047 216.667 452.748 251.551 468.673 250.41C472.976 250.102 476.665 247.853 476.296 242.367C475.897 236.636 471.009 233.616 464.891 234.047C450.996 235.033 433.719 252.66 424.282 268.561C420.285 274.724 417.734 280.518 416.627 285.602L408.634 283.291C409.895 277.066 412.815 270.256 417.519 262.798C428.954 244.494 448.875 226.189 464.031 225.111C473.991 224.402 482.199 231.058 482.937 241.751C483.674 251.951 478.079 258.084 469.38 258.731C450.965 260.056 442.573 226.898 425.942 228.1C417.672 228.685 412.754 236.05 413.368 244.74C413.83 251.088 417.857 256.789 423.298 261.288C430.307 267.051 439.099 270.78 449.459 272.783L450.135 282.367C438.822 279.932 428.278 275.556 419.271 268.838C411.893 262.737 406.575 255.002 405.806 244.062C404.792 229.641 412.661 219.071 424.651 218.239L424.681 218.208Z" fill="black"/>
<path d="M23.658 247.853C45.7612 248.315 49.3887 282.213 65.8661 282.552C70.3237 282.644 74.3201 280.826 74.443 275.556C74.566 270.071 69.8318 266.743 63.5298 266.62C49.1428 266.312 29.7756 281.596 18.5857 295.926C13.913 301.442 10.7466 306.773 9.14805 311.519L1.12451 308.591C2.99974 302.767 6.62723 296.511 12.1607 289.824C25.5947 273.368 47.7901 257.683 63.4683 258.022C73.7667 258.238 81.5751 265.325 81.3599 275.587C81.1754 285.387 74.8427 290.749 65.8354 290.564C46.7757 290.163 41.2422 257.806 24.0577 257.437C15.5115 257.252 9.76286 263.846 9.60915 272.197C9.48619 278.299 13.1137 284.092 18.2783 288.869C24.9492 294.97 33.6183 299.346 44.1011 302.181L43.9167 311.395C32.5116 308.067 22.0902 302.952 13.4826 295.71C6.47353 289.239 1.73933 281.381 1.95452 270.841C2.2312 256.974 11.3307 247.606 23.7195 247.853H23.658Z" fill="black"/>
<path d="M101.127 366.34L117.051 384.583C127.626 396.694 131.653 408.589 121.109 417.834C115.667 422.61 107.582 424.028 99.7434 418.604L99.4052 418.912C105.4 428.65 105.062 437.248 97.2841 444.089C85.7867 454.197 72.199 449.543 60.8554 436.539L43.6094 416.786L101.127 366.309V366.34ZM68.0796 428.342C75.6113 436.97 82.5281 439.035 89.0453 433.334C95.1014 428.003 93.6873 421.378 86.0327 412.595L78.8084 404.336L60.8554 420.083L68.0796 428.373V428.342ZM92.6113 404.398C99.7741 412.626 105.615 413.427 110.995 408.712C116.252 404.121 114.93 398.635 108.29 391.024L102.049 383.874L86.586 397.464L92.6113 404.367V404.398Z" fill="black"/>
<path d="M143.55 411.609L167.129 422.733C181.762 429.636 190.738 440.083 183.452 455.583C176.443 470.498 161.903 471.885 147.27 464.982L136.295 459.805L123.568 486.892L110.964 480.945L143.519 411.609H143.55ZM150.62 454.535C160.273 459.096 167.405 457.586 171.064 449.759C174.783 441.808 170.848 436.539 161.196 431.978L151.543 427.417L140.937 449.975L150.62 454.535ZM159.013 457.494L163.286 505.659L149.206 499.003L146.44 460.606L159.013 457.494Z" fill="black"/>
<path d="M250.407 432.779L258.462 438.141L200.084 516.999L192.029 511.637L250.407 432.779ZM194.765 473.857C195.349 448.68 208.23 434.782 226.306 435.183C244.382 435.584 256.617 450.067 256.033 475.244C255.449 500.913 242.568 515.027 224.492 514.626C206.416 514.226 194.181 499.527 194.765 473.857ZM241.8 474.905C242.199 457.34 235.959 447.263 226.06 447.016C216.161 446.77 209.46 456.569 209.06 474.165C208.66 492.223 214.87 502.516 224.8 502.732C234.729 502.947 241.4 492.932 241.831 474.905H241.8Z" fill="black"/>
<path d="M261.874 435.43L280.688 427.541C301.899 418.635 319.514 424.952 329.259 448.311C339.035 471.731 331.442 489.327 310.907 497.924L291.417 506.121L261.905 435.43H261.874ZM305.189 488.371C318.9 482.609 323.388 471.238 316.133 453.857C308.909 436.539 297.903 432.317 284.192 438.08L278.936 440.268L299.932 490.559L305.189 488.341V488.371Z" fill="black"/>
<path d="M318.992 408.959L337.037 390.13C348.227 378.451 360.985 373.274 373.312 385.169C385.147 396.601 381.827 410.838 370.607 422.518L362.214 431.269L383.733 452.039L374.08 462.116L318.992 408.959ZM361.815 416.015C369.223 408.311 370.053 401.07 363.844 395.061C357.542 388.959 351.301 391.024 343.892 398.728L336.484 406.432L354.406 423.719L361.815 416.015ZM367.287 408.989L414.137 420.361L403.346 431.608L366.18 421.901L367.287 408.959V408.989Z" fill="black"/>
<path d="M361.507 360.115L379.307 313.306L390.005 317.374L377.155 351.209L395.415 358.205L406.298 329.546L416.996 333.644L406.113 362.303L427.233 370.377L440.513 335.432L451.211 339.499L432.981 387.418L361.507 360.115Z" fill="black"/>
</svg>
