<?xml version="1.0" encoding="UTF-8"?>
<svg id="Layer_2" data-name="Layer 2" xmlns="http://www.w3.org/2000/svg" viewBox="0 0 1920 540">
  <defs>
    <style>
      .cls-1 {
        fill: #744e40;
      }

      .cls-2 {
        fill: #dfdbed;
      }

      .cls-3 {
        fill: #f2e0ac;
      }

      .cls-4 {
        fill: #bad6ea;
      }

      .cls-5 {
        fill: #dcefea;
      }

      .cls-6 {
        fill: #f8eee6;
      }

      .cls-7 {
        fill: #2e4032;
      }

      .cls-8 {
        fill: #d9303e;
      }

      .cls-9 {
        fill: #a3beb1;
      }

      .cls-10 {
        fill: #28678c;
      }

      .cls-11 {
        fill: #f1b6b5;
      }

      .cls-12 {
        fill: #d9a2ab;
      }

      .cls-13 {
        fill: #d8c58d;
      }
    </style>
  </defs>
  <g id="Layer_1-2" data-name="Layer 1">
    <rect class="cls-6" width="1920" height="540"/>
    <path class="cls-8" d="M923.15,54.3s11.32,13.23,14.59,34.04c0,0,3.13,14.31-7.12,32.69,0,0-5.56,8.68-13.01,15.03l9.4,15.27s12.54-3.77,18.37-9.33c0,0,9.22,13.41,13.71,22.28,0,0-11.01,8.74-16.57,11.52,0,0,9.38,12.66,10.06,15.96,0,0-12.89,10.79-26.19,16.12,0,0-6.99-10.62-8.84-15.83,0,0-8.03,4.28-16.13,9.93,0,0-8.38-9.54-14.8-24.04,0,0,10.38-7.48,16.6-10.65,0,0-5.21-12.15-10.5-18.55,0,0-29.53,14.39-52.75-5.63,0,0-10.19-7.38-21.86-28.3,0,0-13.32-30.39,11.64-54.36,0,0,22.21-25.52,47.81-25.25,0,0,24.14-5.43,45.6,19.11h-.01ZM910.16,91.49s-1.77-18-16.56-26.9c0,0-12.78-8.59-31.72,1.97,0,0-19.48,6.72-18.75,30.41,0,0-1.75,8.97,10.39,23.88,0,0,8.49,6.42,20.45,6.29,0,0,13.08.95,23.46-7.64,0,0,14.39-9.07,12.73-28.02h0Z"/>
    <path class="cls-12" d="M1160.57,285.7s-5.41,15.18-20.95,27.13c0,0-10.25,8.95-30.3,8.72,0,0-9.81-.69-18.61-3.98l-8.03,14.52s9.13,8.62,16.52,10.92c0,0-6.6,13.54-11.72,21.18,0,0-12.5-5.13-17.45-8.47,0,0-5.89,13.33-8.29,15.37,0,0-15.07-5.77-25.85-14.3,0,0,5.37-10.47,8.77-14.32,0,0-7.39-4.68-15.93-8.81,0,0,3.81-11.13,12.63-22.84,0,0,11.15,5.17,16.75,8.87,0,0,7.49-9.69,10.18-16.88,0,0-26.03-17.81-20.74-45.8,0,0,1.17-11.65,12.75-30.54,0,0,18.58-24.47,50.27-14.67,0,0,31.67,6.85,43.76,27.96,0,0,16.07,17.38,6.23,45.92v.02ZM1123.76,291.6s13.95-9.47,14.15-25.57c0,0,.91-14.31-16.88-25.13,0,0-14.9-12.98-34.01-1.83,0,0-8.22,2.56-14.64,19.17,0,0-1.18,9.82,4.67,19.57,0,0,5.51,11.15,17.57,15.84,0,0,14.39,7.77,29.15-2.04h-.01Z"/>
    <path class="cls-11" d="M255.01,212.35s-1.77,17.32-14.58,34.03c0,0-8.21,12.14-28.6,17.39,0,0-10.12,1.97-19.85.96l-4.58,17.34s11.37,6.48,19.43,6.87c0,0-3.36,15.93-6.67,25.29,0,0-13.94-1.94-19.77-4.06,0,0-2.7,15.52-4.63,18.3,0,0-16.7-1.89-29.73-7.85,0,0,2.87-12.38,5.38-17.32,0,0-8.65-2.86-18.33-4.84,0,0,1.14-12.66,7.2-27.29,0,0,12.58,2.36,19.17,4.68,0,0,5.21-12.15,6.18-20.41,0,0-30.77-11.45-32.29-42.08,0,0-1.69-12.48,5.41-35.34,0,0,12.83-30.6,47.38-29.06,0,0,33.81-1.51,51.27,17.21,0,0,20.58,13.74,17.61,46.19h0ZM219.12,228.58s11.82-13.7,8.06-30.53c0,0-2.6-15.17-23.29-21.61,0,0-18.31-9.47-34.96,7.4,0,0-7.69,4.92-10.13,23.99,0,0,1.22,10.56,9.55,19.14,0,0,8.33,10.12,21.71,11.72,0,0,16.51,4.15,29.07-10.12h-.01Z"/>
    <path class="cls-2" d="M1649.46,425.06s-4,16.93-18.88,31.85c0,0-9.7,10.97-30.6,13.54,0,0-10.29.64-19.81-1.64l-6.79,16.61s10.45,7.9,18.39,9.33c0,0-5.4,15.36-9.9,24.22,0,0-13.57-3.72-19.08-6.58,0,0-4.69,15.04-6.97,17.54,0,0-16.32-4.04-28.46-11.63,0,0,4.45-11.9,7.58-16.49,0,0-8.21-3.96-17.55-7.17,0,0,2.77-12.39,10.67-26.12,0,0,12.17,3.97,18.4,7.12,0,0,6.75-11.39,8.77-19.43,0,0-29.04-15.35-26.56-45.93,0,0-.06-12.58,9.94-34.34,0,0,16.7-28.69,50.75-22.68,0,0,33.72,2.89,48.6,23.71,0,0,18.62,16.29,11.48,48.09h.02ZM1611.77,436.51s13.49-12.05,11.95-29.23c0,0-.6-15.39-20.3-24.45,0,0-16.92-11.76-35.61,2.8,0,0-8.27,3.89-13.16,22.49,0,0-.16,10.63,6.98,20.22,0,0,6.95,11.11,20.01,14.44,0,0,15.83,6.26,30.13-6.26h0Z"/>
    <path class="cls-3" d="M1352.04,136.61s2.71,17.2-5.41,36.64c0,0-4.84,13.83-23.21,24.1,0,0-9.28,4.49-18.95,5.99v17.93s12.65,3.36,20.54,1.69c0,0,.81,16.26,0,26.16,0,0-13.97,1.68-20.15,1.12,0,0,1.35,15.7.19,18.86,0,0-16.62,2.43-30.75,0,0,0-.39-12.7.78-18.12,0,0-9.09-.56-18.96,0,0,0-2.12-12.53,0-28.23,0,0,12.76-.93,19.73-.37,0,0,1.94-13.08.77-21.31,0,0-32.68-3.22-41.96-32.45,0,0-4.82-11.63-3.79-35.55,0,0,4.6-32.86,38.4-40.19,0,0,32.3-10.09,53.96,3.56,0,0,23.4,8.03,28.81,40.17h0ZM1321.47,161.46s7.93-16.25,0-31.58c0,0-6.38-14.01-28.03-14.95,0,0-20.11-4.49-31.92,16.07,0,0-6.18,6.72-3.67,25.78,0,0,3.87,9.91,14.13,16.07,0,0,10.63,7.66,23.97,5.79,0,0,17.02-.18,25.53-17.2v.02Z"/>
    <path class="cls-13" d="M1407.59,347.05s9.17,14.79,9.24,35.85c0,0,.91,14.62-12.03,31.23,0,0-6.8,7.74-15.14,12.87l6.97,16.54s12.97-1.82,19.58-6.43c0,0,7.07,14.66,10.16,24.11,0,0-12.22,6.98-18.13,8.86,0,0,7.34,13.94,7.51,17.32,0,0-14.38,8.7-28.34,11.95,0,0-5.29-11.55-6.33-17,0,0-8.59,3.01-17.47,7.36,0,0-6.82-10.71-10.96-26,0,0,11.4-5.81,18.03-8.01,0,0-3.3-12.81-7.55-19.93,0,0-31.37,9.73-51.29-13.61,0,0-8.95-8.84-17.29-31.28,0,0-8.54-32.08,19.77-51.95,0,0,25.83-21.85,51.09-17.69,0,0,24.69-1.68,42.16,25.83l.02-.02ZM1389.09,381.82s.98-18.06-12.27-29.1c0,0-11.33-10.44-31.65-2.88,0,0-20.28,3.68-23.16,27.2,0,0-3.09,8.61,6.63,25.19,0,0,7.41,7.62,19.25,9.33,0,0,12.78,2.92,24.34-3.98,0,0,15.61-6.78,16.85-25.76h.01Z"/>
    <path class="cls-7" d="M998.17,324.44s-4.4,16.84-19.61,31.4c0,0-9.97,10.73-30.92,12.81,0,0-10.3.4-19.76-2.1l-7.18,16.45s10.26,8.15,18.15,9.75c0,0-5.75,15.23-10.47,23.98,0,0-13.48-4.04-18.92-7.03,0,0-5.04,14.93-7.37,17.38,0,0-16.22-4.43-28.18-12.3,0,0,4.72-11.8,7.96-16.31,0,0-8.1-4.15-17.37-7.58,0,0,3.06-12.32,11.29-25.86,0,0,12.07,4.25,18.23,7.56,0,0,7.01-11.22,9.24-19.21,0,0-28.67-16.03-25.48-46.54,0,0,.23-12.58,10.76-34.09,0,0,17.36-28.29,51.28-21.47,0,0,33.63,3.68,48.03,24.84,0,0,18.23,16.73,10.33,48.35v-.03ZM960.23,334.99s13.77-11.73,12.63-28.94c0,0-.24-15.4-19.72-24.92,0,0-16.64-12.16-35.68,1.95,0,0-8.36,3.7-13.69,22.17,0,0-.41,10.62,6.51,20.38,0,0,6.68,11.27,19.65,14.9,0,0,15.68,6.63,30.28-5.55h.02Z"/>
    <path class="cls-10" d="M1496.46,55.43s2.44,16.88-6.17,36.16c0,0-5.16,13.7-24.02,24.16,0,0-9.52,4.59-19.37,6.25l-.33,17.65s12.8,3.07,20.84,1.27c0,0,.54,15.99-.48,25.75,0,0-14.22,1.91-20.5,1.48,0,0,1.09,15.44-.14,18.57,0,0-16.95,2.71-31.25.58,0,0-.16-12.5,1.11-17.85,0,0-9.23-.38-19.25.36,0,0-1.94-12.29.52-27.78,0,0,12.99-1.16,20.04-.74,0,0,2.21-12.91,1.18-20.99,0,0-33.16-2.55-42.06-31.15,0,0-4.67-11.36-3.19-34.93,0,0,5.27-32.43,39.76-40.29,0,0,33-10.54,54.77,2.48,0,0,23.64,7.46,28.55,38.99v.03ZM1464.95,80.47s8.36-16.14.58-31.08c0,0-6.23-13.67-28.23-14.18,0,0-20.36-4.03-32.72,16.43,0,0-6.42,6.74-4.21,25.45,0,0,3.74,9.67,14.05,15.55,0,0,10.67,7.34,24.27,5.25,0,0,17.29-.5,26.26-17.41h0Z"/>
    <path class="cls-4" d="M542.82,240.76s-1.14,17.36-13.35,34.53c0,0-7.76,12.42-27.94,18.4,0,0-10.05,2.33-19.81,1.66l-3.95,17.5s11.61,6.07,19.68,6.16c0,0-2.79,16.04-5.76,25.52,0,0-14-1.43-19.92-3.34,0,0-2.14,15.61-3.96,18.45,0,0-16.76-1.29-30-6.77,0,0,2.42-12.49,4.74-17.51,0,0-8.74-2.55-18.48-4.17,0,0,.68-12.68,6.21-27.52,0,0,12.65,1.9,19.33,3.98,0,0,4.76-12.33,5.44-20.6,0,0-31.18-10.34-33.79-40.91,0,0-2.13-12.39,4.14-35.5,0,0,11.72-31.06,46.31-30.75,0,0,33.73-2.73,51.85,15.34,0,0,21.06,13,19.26,45.54h0ZM507.54,258.28s11.32-14.11,6.95-30.8c0,0-3.14-15.08-24.06-20.76,0,0-18.63-8.81-34.66,8.64,0,0-7.53,5.21-9.26,24.35,0,0,1.59,10.51,10.23,18.78,0,0,8.69,9.82,22.12,10.93,0,0,16.64,3.57,28.68-11.14h0Z"/>
    <path class="cls-9" d="M387.13,367.68s2.71,17.19-5.41,36.62c0,0-4.83,13.83-23.2,24.11,0,0-9.29,4.49-18.96,5.98v17.94s12.66,3.36,20.54,1.68c0,0,.82,16.26,0,26.16,0,0-13.96,1.69-20.15,1.12,0,0,1.35,15.7.2,18.87,0,0-16.64,2.43-30.75,0,0,0-.39-12.71.77-18.13,0,0-9.09-.56-18.95,0,0,0-2.13-12.52,0-28.21,0,0,12.76-.94,19.72-.38,0,0,1.94-13.08.78-21.3,0,0-32.69-3.22-41.97-32.46,0,0-4.81-11.62-3.78-35.54,0,0,4.59-32.87,38.4-40.19,0,0,32.29-10.1,53.95,3.55,0,0,23.4,8.04,28.81,40.18h0ZM356.57,392.53s7.93-16.26,0-31.58c0,0-6.38-14.02-28.04-14.95,0,0-20.11-4.49-31.91,16.06,0,0-6.19,6.73-3.67,25.79,0,0,3.86,9.9,14.12,16.06,0,0,10.64,7.66,23.98,5.79,0,0,17.01-.18,25.53-17.19v.02Z"/>
    <path class="cls-5" d="M135.5,66.4s2.71,17.19-5.42,36.62c0,0-4.83,13.83-23.2,24.11,0,0-9.29,4.49-18.96,5.98v17.93s12.66,3.36,20.55,1.69c0,0,.81,16.26,0,26.16,0,0-13.97,1.69-20.15,1.12,0,0,1.35,15.7.19,18.87,0,0-16.64,2.42-30.75,0,0,0-.39-12.71.78-18.13,0,0-9.1-.56-18.96,0,0,0-2.12-12.52,0-28.21,0,0,12.76-.94,19.73-.38,0,0,1.94-13.08.77-21.31,0,0-32.69-3.21-41.96-32.45,0,0-4.82-11.63-3.79-35.55,0,0,4.6-32.86,38.4-40.18,0,0,32.3-10.1,53.95,3.55,0,0,23.4,8.03,28.82,40.18ZM104.94,91.25s7.93-16.26,0-31.59c0,0-6.38-14.01-28.04-14.95,0,0-20.11-4.48-31.91,16.07,0,0-6.18,6.72-3.67,25.79,0,0,3.87,9.9,14.12,16.06,0,0,10.64,7.66,23.98,5.79,0,0,17.02-.18,25.53-17.19v.02Z"/>
    <path class="cls-1" d="M1746.7,222.43s2.71,17.2-5.41,36.64c0,0-4.84,13.83-23.2,24.1,0,0-9.29,4.49-18.96,5.99v17.93s12.66,3.36,20.54,1.69c0,0,.82,16.26,0,26.16,0,0-13.96,1.68-20.15,1.12,0,0,1.35,15.7.2,18.86,0,0-16.64,2.43-30.75,0,0,0-.39-12.7.77-18.12,0,0-9.09-.56-18.96,0,0,0-2.12-12.53,0-28.23,0,0,12.77-.93,19.73-.37,0,0,1.94-13.08.78-21.31,0,0-32.69-3.22-41.97-32.45,0,0-4.81-11.63-3.78-35.55,0,0,4.59-32.86,38.4-40.19,0,0,32.29-10.09,53.95,3.56,0,0,23.4,8.03,28.81,40.17h0ZM1716.15,247.28s7.92-16.25,0-31.58c0,0-6.38-14.01-28.04-14.95,0,0-20.11-4.49-31.91,16.07,0,0-6.19,6.72-3.67,25.78,0,0,3.86,9.91,14.12,16.07,0,0,10.64,7.66,23.97,5.79,0,0,17.02-.18,25.54-17.2v.02Z"/>
    <path class="cls-12" d="M732.84,334.84s31.32,19.89,63.14,25.94c0,0-16.42,10.03-21.37,16.56l15.78,34.34s21.69-3.76,42.26,10.79c0,0,13.72,8.58,22.57,26.68,0,0,11.22,15.2-4.18,51.98,0,0-11.46,28.12-41.28,30.45,0,0-40.2,2.28-52.02-15.82,0,0-12.07-14.82-15.4-33.19,0,0-5.04-29,17.06-53.63l-16.11-30.03s-6.87-7.53-30.79,6.83c0,0,20.11-58.78,20.33-70.89h0ZM821.11,439.6c-18.51-8.92-29.29-4.52-29.29-4.52-21.1,6.48-24.22,23.63-24.22,23.63-8.08,22.24,6.4,39.26,6.4,39.26,9.37,9.71,17.66,10.86,17.66,10.86,31.08,7.26,43.82-23.43,43.82-23.43,4.51-14.81,1.36-24.28,1.36-24.28-4.28-16.94-15.73-21.52-15.73-21.52h0Z"/>
    <path class="cls-8" d="M1734.66,355.18s35.75,9.91,67.95,6.44c0,0-12.79,14.38-15.63,22.06l25.09,28.26s19.66-9.91,43.57-1.98c0,0,15.63,4.21,29.36,18.96,0,0,15.16,11.28,11.13,50.94,0,0-2.78,30.24-30.63,41.15,0,0-37.79,13.89-54.37,0,0,0-15.87-10.66-24.39-27.26,0,0-13.26-26.28.71-56.27l-24.15-24.04s-8.76-5.2-27.47,15.49c0,0,2.13-62.09-1.18-73.74h.01ZM1849.6,429.71c-20.31-3.15-29.34,4.2-29.34,4.2-18.3,12.34-16.3,29.66-16.3,29.66-1.25,23.62,17.55,35.7,17.55,35.7,11.79,6.56,20.06,5.25,20.06,5.25,31.84-2.1,35.1-35.17,35.1-35.17,0-15.49-5.76-23.62-5.76-23.62-9.03-14.96-21.31-16.01-21.31-16.01h0Z"/>
    <path class="cls-11" d="M1582.78,196.6s-9.92,35.75-6.44,67.95c0,0-14.38-12.79-22.06-15.63l-28.26,25.09s9.91,19.66,1.99,43.57c0,0-4.22,15.63-18.97,29.36,0,0-11.28,15.16-50.94,11.13,0,0-30.24-2.78-41.15-30.63,0,0-13.88-37.79,0-54.37,0,0,10.66-15.87,27.27-24.39,0,0,26.27-13.26,56.26.71l24.04-24.15s5.21-8.76-15.49-27.47c0,0,62.09,2.13,73.75-1.18h0ZM1508.25,311.54c3.15-20.31-4.2-29.34-4.2-29.34-12.33-18.3-29.66-16.3-29.66-16.3-23.62-1.25-35.7,17.55-35.7,17.55-6.56,11.79-5.25,20.06-5.25,20.06,2.1,31.84,35.17,35.1,35.17,35.1,15.49,0,23.62-5.76,23.62-5.76,14.96-9.03,16.01-21.31,16.01-21.31h0Z"/>
    <path class="cls-2" d="M653.92,352.18s-9.92,35.75-6.44,67.95c0,0-14.38-12.79-22.06-15.63l-28.26,25.09s9.92,19.66,1.99,43.57c0,0-4.21,15.63-18.97,29.36,0,0-11.28,15.15-50.94,11.13,0,0-30.24-2.78-41.15-30.63,0,0-13.88-37.8,0-54.37,0,0,10.66-15.87,27.27-24.39,0,0,26.28-13.26,56.27.71l24.04-24.15s5.2-8.76-15.5-27.47c0,0,62.09,2.13,73.75-1.18h0ZM579.39,467.12c3.15-20.31-4.19-29.34-4.19-29.34-12.34-18.3-29.66-16.3-29.66-16.3-23.62-1.25-35.69,17.55-35.69,17.55-6.56,11.79-5.25,20.06-5.25,20.06,2.1,31.84,35.17,35.1,35.17,35.1,15.49,0,23.62-5.76,23.62-5.76,14.96-9.03,16.01-21.31,16.01-21.31h-.01Z"/>
    <path class="cls-3" d="M504.48,53.35s37.05,1.82,67.71-8.63c0,0-9.32,16.83-10.41,24.95l30.69,22.06s17-13.99,42.07-11.5c0,0,16.17.68,32.81,12.06,0,0,17.26,7.68,22.04,47.25,0,0,3.93,30.11-20.85,46.87,0,0-33.83,21.84-53.04,11.94,0,0-17.82-6.91-29.78-21.25,0,0-18.7-22.72-11.66-55.05l-28.84-18.16s-9.69-3.15-23.39,21.15c0,0-11.55-61.05-17.35-71.69h0ZM632.99,100.82c-20.51,1.39-27.7,10.54-27.7,10.54-15.14,16.06-9.39,32.52-9.39,32.52,3.96,23.32,24.96,30.97,24.96,30.97,12.94,3.81,20.72.72,20.72.72,30.61-9.04,26.52-42.02,26.52-42.02-3.4-15.11-10.81-21.78-10.81-21.78-12.09-12.61-24.31-10.94-24.31-10.94h.01Z"/>
    <path class="cls-13" d="M438.28,27.65s-9.91,35.76-6.44,67.96c0,0-14.38-12.79-22.06-15.63l-28.26,25.1s9.91,19.65,1.98,43.57c0,0-4.21,15.63-18.96,29.36,0,0-11.28,15.15-50.94,11.13,0,0-30.24-2.78-41.15-30.63,0,0-13.89-37.8,0-54.37,0,0,10.66-15.87,27.26-24.39,0,0,26.28-13.26,56.27.71l24.04-24.15s5.2-8.76-15.49-27.47c0,0,62.09,2.13,73.74-1.19h0ZM363.75,142.6c3.15-20.31-4.2-29.34-4.2-29.34-12.33-18.3-29.66-16.3-29.66-16.3-23.62-1.25-35.7,17.55-35.7,17.55-6.56,11.79-5.25,20.06-5.25,20.06,2.1,31.84,35.17,35.1,35.17,35.1,15.49,0,23.62-5.76,23.62-5.76,14.96-9.03,16.01-21.31,16.01-21.31h.01Z"/>
    <path class="cls-7" d="M1536.82,167.52s9.91-35.76,6.44-67.96c0,0,14.37,12.79,22.06,15.63l28.26-25.1s-9.91-19.65-1.99-43.57c0,0,4.22-15.63,18.97-29.36,0,0,11.28-15.15,50.94-11.13,0,0,30.24,2.78,41.15,30.63,0,0,13.88,37.8,0,54.37,0,0-10.66,15.87-27.27,24.39,0,0-26.27,13.26-56.26-.71l-24.04,24.15s-5.21,8.76,15.49,27.47c0,0-62.09-2.13-73.74,1.19h0ZM1611.35,52.56c-3.15,20.31,4.2,29.34,4.2,29.34,12.33,18.3,29.66,16.3,29.66,16.3,23.62,1.25,35.7-17.55,35.7-17.55,6.56-11.79,5.25-20.06,5.25-20.06-2.1-31.84-35.17-35.1-35.17-35.1-15.49,0-23.62,5.76-23.62,5.76-14.96,9.03-16.01,21.31-16.01,21.31h0Z"/>
    <path class="cls-10" d="M198.13,360.1s-9.92,35.76-6.44,67.96c0,0-14.38-12.79-22.06-15.63l-28.26,25.1s9.91,19.65,1.99,43.56c0,0-4.22,15.63-18.97,29.37,0,0-11.28,15.15-50.94,11.13,0,0-30.24-2.78-41.15-30.64,0,0-13.88-37.79,0-54.36,0,0,10.66-15.87,27.27-24.39,0,0,26.27-13.26,56.27.71l24.04-24.15s5.21-8.76-15.49-27.47c0,0,62.09,2.13,73.75-1.19h-.01ZM123.6,475.05c3.15-20.3-4.2-29.33-4.2-29.33-12.33-18.3-29.66-16.3-29.66-16.3-23.62-1.25-35.7,17.55-35.7,17.55-6.56,11.79-5.25,20.06-5.25,20.06,2.1,31.84,35.17,35.1,35.17,35.1,15.49,0,23.62-5.77,23.62-5.77,14.96-9.02,16.01-21.31,16.01-21.31h0Z"/>
    <path class="cls-4" d="M999.05,453.47s33.3-16.37,55.05-40.37c0,0,0,19.24,2.99,26.87l37.54,4.42s8.09-20.47,31.23-30.44c0,0,14.48-7.25,34.54-5.35,0,0,18.82-1.65,42.18,30.65,0,0,18.02,24.44,4.47,51.1,0,0-19,35.49-40.61,36.14,0,0-18.94,2.58-36.35-4.15,0,0-27.37-10.81-36.88-42.51l-34.03-1.9s-10,1.94-10.21,29.83c0,0-39.69-47.8-49.91-54.3h-.01ZM1134.46,432.72c-17.26,11.15-19.12,22.64-19.12,22.64-5.47,21.38,7.55,32.99,7.55,32.99,14.77,18.48,36.84,14.99,36.84,14.99,13.16-2.93,18.47-9.41,18.47-9.41,22.39-22.73,2.84-49.61,2.84-49.61-10.29-11.57-20.02-13.81-20.02-13.81-16.68-5.18-26.57,2.21-26.57,2.21h.01Z"/>
    <path class="cls-9" d="M1217.16,17.18s-9.91,35.76-6.44,67.96c0,0-14.38-12.79-22.06-15.63l-28.26,25.1s9.91,19.65,1.98,43.56c0,0-4.21,15.63-18.96,29.37,0,0-11.28,15.15-50.94,11.13,0,0-30.24-2.78-41.15-30.64,0,0-13.89-37.79,0-54.36,0,0,10.66-15.87,27.26-24.39,0,0,26.28-13.26,56.27.71l24.04-24.15s5.2-8.76-15.49-27.47c0,0,62.09,2.13,73.74-1.19h0ZM1142.63,132.13c3.15-20.3-4.2-29.33-4.2-29.33-12.34-18.3-29.66-16.3-29.66-16.3-23.62-1.25-35.7,17.55-35.7,17.55-6.56,11.79-5.25,20.06-5.25,20.06,2.1,31.84,35.17,35.1,35.17,35.1,15.49,0,23.62-5.77,23.62-5.77,14.96-9.02,16.01-21.31,16.01-21.31h0Z"/>
    <path class="cls-5" d="M1906.65,17.18s-9.91,35.76-6.44,67.95c0,0-14.38-12.78-22.06-15.63l-28.26,25.1s9.91,19.65,1.98,43.56c0,0-4.21,15.63-18.96,29.36,0,0-11.28,15.16-50.94,11.13,0,0-30.24-2.78-41.15-30.64,0,0-13.89-37.79,0-54.36,0,0,10.66-15.87,27.26-24.39,0,0,26.28-13.26,56.27.71l24.04-24.15s5.21-8.76-15.49-27.46c0,0,62.09,2.13,73.74-1.19h0ZM1832.13,132.13c3.15-20.3-4.2-29.33-4.2-29.33-12.33-18.31-29.66-16.3-29.66-16.3-23.62-1.25-35.7,17.55-35.7,17.55-6.56,11.78-5.25,20.06-5.25,20.06,2.1,31.84,35.17,35.1,35.17,35.1,15.49,0,23.62-5.77,23.62-5.77,14.96-9.02,16.01-21.31,16.01-21.31h0Z"/>
    <path class="cls-1" d="M819.5,153.46s-9.92,35.76-6.44,67.95c0,0-14.38-12.78-22.06-15.63l-28.26,25.1s9.92,19.65,1.99,43.56c0,0-4.22,15.63-18.97,29.36,0,0-11.28,15.16-50.94,11.13,0,0-30.24-2.78-41.15-30.64,0,0-13.88-37.79,0-54.37,0,0,10.66-15.86,27.27-24.38,0,0,26.27-13.26,56.27.71l24.04-24.15s5.21-8.76-15.49-27.46c0,0,62.09,2.13,73.75-1.19h-.01ZM744.97,268.41c3.15-20.3-4.2-29.33-4.2-29.33-12.33-18.31-29.66-16.3-29.66-16.3-23.62-1.25-35.7,17.55-35.7,17.55-6.56,11.78-5.25,20.06-5.25,20.06,2.1,31.84,35.18,35.1,35.18,35.1,15.49,0,23.62-5.77,23.62-5.77,14.96-9.03,16.01-21.31,16.01-21.31h0Z"/>
  </g>
</svg>